<mxfile host="Electron" modified="2023-07-31T02:46:36.677Z" agent="Mozilla/5.0 (Windows NT 10.0; Win64; x64) AppleWebKit/537.36 (KHTML, like Gecko) draw.io/21.6.5 Chrome/114.0.5735.243 Electron/25.3.1 Safari/537.36" etag="abyDIFRpCCL9-plyaXLx" version="21.6.5" type="device">
  <diagram name="Page-1" id="ZtI4r-V55bvlit_4h5KO">
    <mxGraphModel dx="2135" dy="866" grid="1" gridSize="10" guides="1" tooltips="1" connect="1" arrows="1" fold="1" page="1" pageScale="1" pageWidth="850" pageHeight="1100" math="0" shadow="0">
      <root>
        <mxCell id="0" />
        <mxCell id="1" parent="0" />
        <mxCell id="3gGa0sXZjqCmznwwwbql-11" style="edgeStyle=orthogonalEdgeStyle;rounded=0;orthogonalLoop=1;jettySize=auto;html=1;entryX=0;entryY=0.5;entryDx=0;entryDy=0;entryPerimeter=0;fillColor=#d5e8d4;strokeColor=#82b366;strokeWidth=5;" edge="1" parent="1" source="3gGa0sXZjqCmznwwwbql-3" target="3gGa0sXZjqCmznwwwbql-5">
          <mxGeometry relative="1" as="geometry" />
        </mxCell>
        <mxCell id="3gGa0sXZjqCmznwwwbql-3" value="" style="fillColor=#28A8E0;verticalLabelPosition=bottom;sketch=0;html=1;strokeColor=#ffffff;verticalAlign=top;align=center;points=[[0.145,0.145,0],[0.5,0,0],[0.855,0.145,0],[1,0.5,0],[0.855,0.855,0],[0.5,1,0],[0.145,0.855,0],[0,0.5,0]];pointerEvents=1;shape=mxgraph.cisco_safe.compositeIcon;bgIcon=ellipse;resIcon=mxgraph.cisco_safe.capability.device_profiling;" vertex="1" parent="1">
          <mxGeometry x="-150" y="739" width="60" height="60" as="geometry" />
        </mxCell>
        <mxCell id="3gGa0sXZjqCmznwwwbql-4" value="Problem Description" style="text;html=1;align=center;verticalAlign=middle;resizable=0;points=[];autosize=1;strokeColor=none;fillColor=none;" vertex="1" parent="1">
          <mxGeometry x="-55" y="692" width="130" height="30" as="geometry" />
        </mxCell>
        <mxCell id="3gGa0sXZjqCmznwwwbql-5" value="" style="verticalLabelPosition=bottom;html=1;verticalAlign=top;align=center;strokeColor=none;fillColor=#00BEF2;shape=mxgraph.azure.startup_task;pointerEvents=1;" vertex="1" parent="1">
          <mxGeometry x="90" y="739" width="58.75" height="60" as="geometry" />
        </mxCell>
        <mxCell id="3gGa0sXZjqCmznwwwbql-6" value="Project Objective" style="text;html=1;align=center;verticalAlign=middle;resizable=0;points=[];autosize=1;strokeColor=none;fillColor=none;" vertex="1" parent="1">
          <mxGeometry x="134.38" y="690" width="110" height="30" as="geometry" />
        </mxCell>
        <mxCell id="3gGa0sXZjqCmznwwwbql-7" value="Related Works View" style="text;html=1;align=center;verticalAlign=middle;resizable=0;points=[];autosize=1;strokeColor=none;fillColor=none;" vertex="1" parent="1">
          <mxGeometry x="303" y="688" width="130" height="30" as="geometry" />
        </mxCell>
        <mxCell id="3gGa0sXZjqCmznwwwbql-15" value="" style="edgeStyle=orthogonalEdgeStyle;rounded=0;orthogonalLoop=1;jettySize=auto;html=1;strokeWidth=5;fillColor=#d5e8d4;strokeColor=#82b366;" edge="1" parent="1" source="3gGa0sXZjqCmznwwwbql-9" target="3gGa0sXZjqCmznwwwbql-14">
          <mxGeometry relative="1" as="geometry" />
        </mxCell>
        <mxCell id="3gGa0sXZjqCmznwwwbql-9" value="" style="html=1;verticalLabelPosition=bottom;align=center;labelBackgroundColor=#ffffff;verticalAlign=top;strokeWidth=2;strokeColor=#0080F0;shadow=0;dashed=0;shape=mxgraph.ios7.icons.data;" vertex="1" parent="1">
          <mxGeometry x="575" y="739" width="60" height="60" as="geometry" />
        </mxCell>
        <mxCell id="3gGa0sXZjqCmznwwwbql-10" value="Dataset Selection" style="text;html=1;align=center;verticalAlign=middle;resizable=0;points=[];autosize=1;strokeColor=none;fillColor=none;" vertex="1" parent="1">
          <mxGeometry x="530" y="686" width="120" height="30" as="geometry" />
        </mxCell>
        <mxCell id="3gGa0sXZjqCmznwwwbql-18" style="edgeStyle=orthogonalEdgeStyle;rounded=0;orthogonalLoop=1;jettySize=auto;html=1;strokeWidth=5;fillColor=#d5e8d4;strokeColor=#82b366;" edge="1" parent="1" source="3gGa0sXZjqCmznwwwbql-14" target="3gGa0sXZjqCmznwwwbql-17">
          <mxGeometry relative="1" as="geometry" />
        </mxCell>
        <mxCell id="3gGa0sXZjqCmznwwwbql-14" value="" style="sketch=0;pointerEvents=1;shadow=0;dashed=0;html=1;strokeColor=none;fillColor=#005F4B;labelPosition=center;verticalLabelPosition=bottom;verticalAlign=top;align=center;outlineConnect=0;shape=mxgraph.veeam2.veeam_proxy;" vertex="1" parent="1">
          <mxGeometry x="570" y="928" width="70" height="65" as="geometry" />
        </mxCell>
        <mxCell id="3gGa0sXZjqCmznwwwbql-16" value="Dataset Preprocessing IID" style="text;html=1;align=center;verticalAlign=middle;resizable=0;points=[];autosize=1;strokeColor=none;fillColor=none;" vertex="1" parent="1">
          <mxGeometry x="471" y="998" width="160" height="30" as="geometry" />
        </mxCell>
        <mxCell id="3gGa0sXZjqCmznwwwbql-22" style="edgeStyle=orthogonalEdgeStyle;rounded=0;orthogonalLoop=1;jettySize=auto;html=1;entryX=1;entryY=0.5;entryDx=0;entryDy=0;entryPerimeter=0;fillColor=#d5e8d4;strokeColor=#82b366;strokeWidth=5;" edge="1" parent="1" source="3gGa0sXZjqCmznwwwbql-17" target="3gGa0sXZjqCmznwwwbql-20">
          <mxGeometry relative="1" as="geometry" />
        </mxCell>
        <mxCell id="3gGa0sXZjqCmznwwwbql-17" value="" style="shape=image;verticalLabelPosition=bottom;labelBackgroundColor=default;verticalAlign=top;aspect=fixed;imageAspect=0;image=https://cdn-icons-png.flaticon.com/512/5140/5140039.png;" vertex="1" parent="1">
          <mxGeometry x="311" y="920.5" width="80" height="80" as="geometry" />
        </mxCell>
        <mxCell id="3gGa0sXZjqCmznwwwbql-19" value="Dataset Cleaning" style="text;html=1;align=center;verticalAlign=middle;resizable=0;points=[];autosize=1;strokeColor=none;fillColor=none;" vertex="1" parent="1">
          <mxGeometry x="292" y="1001" width="120" height="30" as="geometry" />
        </mxCell>
        <mxCell id="3gGa0sXZjqCmznwwwbql-32" style="edgeStyle=orthogonalEdgeStyle;rounded=0;orthogonalLoop=1;jettySize=auto;html=1;entryX=0.976;entryY=0.356;entryDx=0;entryDy=0;entryPerimeter=0;fillColor=#d5e8d4;strokeColor=#82b366;strokeWidth=5;" edge="1" parent="1" source="3gGa0sXZjqCmznwwwbql-20" target="3gGa0sXZjqCmznwwwbql-25">
          <mxGeometry relative="1" as="geometry" />
        </mxCell>
        <mxCell id="3gGa0sXZjqCmznwwwbql-20" value="" style="sketch=0;points=[[0,0,0],[0.25,0,0],[0.5,0,0],[0.75,0,0],[1,0,0],[0,1,0],[0.25,1,0],[0.5,1,0],[0.75,1,0],[1,1,0],[0,0.25,0],[0,0.5,0],[0,0.75,0],[1,0.25,0],[1,0.5,0],[1,0.75,0]];outlineConnect=0;fontColor=#232F3E;gradientColor=#4AB29A;gradientDirection=north;fillColor=#116D5B;strokeColor=#ffffff;dashed=0;verticalLabelPosition=bottom;verticalAlign=top;align=center;html=1;fontSize=12;fontStyle=0;aspect=fixed;shape=mxgraph.aws4.resourceIcon;resIcon=mxgraph.aws4.augmented_ai;" vertex="1" parent="1">
          <mxGeometry x="111" y="930.5" width="60" height="60" as="geometry" />
        </mxCell>
        <mxCell id="3gGa0sXZjqCmznwwwbql-21" value="Classification Model Selection" style="text;html=1;align=center;verticalAlign=middle;resizable=0;points=[];autosize=1;strokeColor=none;fillColor=none;" vertex="1" parent="1">
          <mxGeometry x="66" y="1000.5" width="180" height="30" as="geometry" />
        </mxCell>
        <mxCell id="3gGa0sXZjqCmznwwwbql-25" value="" style="shape=image;verticalLabelPosition=bottom;labelBackgroundColor=default;verticalAlign=top;aspect=fixed;imageAspect=0;image=https://tripleblind.com/wp-content/uploads/2021/09/FederatedLearningVSTripleBlind@2x-1500x1000.png;" vertex="1" parent="1">
          <mxGeometry x="-149" y="936.83" width="100" height="66.67" as="geometry" />
        </mxCell>
        <mxCell id="3gGa0sXZjqCmznwwwbql-26" value="" style="edgeStyle=orthogonalEdgeStyle;rounded=0;orthogonalLoop=1;jettySize=auto;html=1;strokeWidth=5;fillColor=#d5e8d4;strokeColor=#82b366;" edge="1" parent="1" source="3gGa0sXZjqCmznwwwbql-5" target="3gGa0sXZjqCmznwwwbql-8">
          <mxGeometry relative="1" as="geometry">
            <mxPoint x="320" y="770" as="targetPoint" />
            <mxPoint x="149" y="770" as="sourcePoint" />
          </mxGeometry>
        </mxCell>
        <mxCell id="3gGa0sXZjqCmznwwwbql-31" style="edgeStyle=orthogonalEdgeStyle;rounded=0;orthogonalLoop=1;jettySize=auto;html=1;entryX=-0.069;entryY=0.514;entryDx=0;entryDy=0;entryPerimeter=0;strokeWidth=5;fillColor=#d5e8d4;strokeColor=#82b366;" edge="1" parent="1" source="3gGa0sXZjqCmznwwwbql-8" target="3gGa0sXZjqCmznwwwbql-9">
          <mxGeometry relative="1" as="geometry" />
        </mxCell>
        <mxCell id="3gGa0sXZjqCmznwwwbql-8" value="" style="sketch=0;outlineConnect=0;fontColor=#232F3E;gradientColor=none;fillColor=#B0084D;strokeColor=none;dashed=0;verticalLabelPosition=bottom;verticalAlign=top;align=center;html=1;fontSize=12;fontStyle=0;aspect=fixed;pointerEvents=1;shape=mxgraph.aws4.logs;" vertex="1" parent="1">
          <mxGeometry x="310" y="740" width="78" height="58" as="geometry" />
        </mxCell>
        <mxCell id="3gGa0sXZjqCmznwwwbql-38" style="edgeStyle=orthogonalEdgeStyle;rounded=0;orthogonalLoop=1;jettySize=auto;html=1;fillColor=#d5e8d4;strokeColor=#82b366;strokeWidth=5;" edge="1" parent="1">
          <mxGeometry relative="1" as="geometry">
            <mxPoint x="-106" y="1160" as="targetPoint" />
            <mxPoint x="-106" y="1012.5" as="sourcePoint" />
          </mxGeometry>
        </mxCell>
        <mxCell id="3gGa0sXZjqCmznwwwbql-33" value="Federated Learning Setup" style="text;html=1;align=center;verticalAlign=middle;resizable=0;points=[];autosize=1;strokeColor=none;fillColor=none;" vertex="1" parent="1">
          <mxGeometry x="-166" y="1010.5" width="160" height="30" as="geometry" />
        </mxCell>
        <mxCell id="3gGa0sXZjqCmznwwwbql-34" value="" style="shape=image;verticalLabelPosition=bottom;labelBackgroundColor=default;verticalAlign=top;aspect=fixed;imageAspect=0;image=https://i.pinimg.com/originals/2a/a5/d0/2aa5d094aa7d2fb9002367a5affa405d.png;" vertex="1" parent="1">
          <mxGeometry x="120" y="1128" width="112" height="112" as="geometry" />
        </mxCell>
        <mxCell id="3gGa0sXZjqCmznwwwbql-36" value="Measurement and Analysis" style="text;html=1;align=center;verticalAlign=middle;resizable=0;points=[];autosize=1;strokeColor=none;fillColor=none;" vertex="1" parent="1">
          <mxGeometry x="101" y="1240" width="170" height="30" as="geometry" />
        </mxCell>
        <mxCell id="3gGa0sXZjqCmznwwwbql-40" style="edgeStyle=orthogonalEdgeStyle;rounded=0;orthogonalLoop=1;jettySize=auto;html=1;entryX=0;entryY=0.75;entryDx=0;entryDy=0;fillColor=#d5e8d4;strokeColor=#82b366;strokeWidth=5;" edge="1" parent="1">
          <mxGeometry relative="1" as="geometry">
            <mxPoint x="-59.288125254168335" y="1192" as="sourcePoint" />
            <mxPoint x="134" y="1193" as="targetPoint" />
          </mxGeometry>
        </mxCell>
        <mxCell id="3gGa0sXZjqCmznwwwbql-37" value="" style="sketch=0;outlineConnect=0;fontColor=#232F3E;gradientColor=none;fillColor=#067F68;strokeColor=none;dashed=0;verticalLabelPosition=bottom;verticalAlign=top;align=center;html=1;fontSize=12;fontStyle=0;aspect=fixed;pointerEvents=1;shape=mxgraph.aws4.sagemaker_model;" vertex="1" parent="1">
          <mxGeometry x="-145" y="1155" width="78" height="78" as="geometry" />
        </mxCell>
        <mxCell id="3gGa0sXZjqCmznwwwbql-39" value="Model Training" style="text;html=1;align=center;verticalAlign=middle;resizable=0;points=[];autosize=1;strokeColor=none;fillColor=none;" vertex="1" parent="1">
          <mxGeometry x="-158" y="1250" width="100" height="30" as="geometry" />
        </mxCell>
        <mxCell id="3gGa0sXZjqCmznwwwbql-52" value="" style="edgeStyle=orthogonalEdgeStyle;rounded=0;orthogonalLoop=1;jettySize=auto;html=1;fillColor=#dae8fc;strokeColor=#6c8ebf;strokeWidth=5;" edge="1" parent="1" source="3gGa0sXZjqCmznwwwbql-42" target="3gGa0sXZjqCmznwwwbql-49">
          <mxGeometry relative="1" as="geometry" />
        </mxCell>
        <mxCell id="3gGa0sXZjqCmznwwwbql-42" value="" style="outlineConnect=0;dashed=0;verticalLabelPosition=bottom;verticalAlign=top;align=center;html=1;shape=mxgraph.aws3.connect;fillColor=#759C3E;gradientColor=none;" vertex="1" parent="1">
          <mxGeometry x="394" y="1153.5" width="90" height="69" as="geometry" />
        </mxCell>
        <mxCell id="3gGa0sXZjqCmznwwwbql-43" value="Comparision of Centrealized &lt;br&gt;and Decentralized results" style="text;html=1;align=center;verticalAlign=middle;resizable=0;points=[];autosize=1;strokeColor=none;fillColor=none;" vertex="1" parent="1">
          <mxGeometry x="355" y="1236" width="170" height="40" as="geometry" />
        </mxCell>
        <mxCell id="3gGa0sXZjqCmznwwwbql-47" style="edgeStyle=orthogonalEdgeStyle;rounded=0;orthogonalLoop=1;jettySize=auto;html=1;entryX=0;entryY=0.75;entryDx=0;entryDy=0;fillColor=#dae8fc;strokeColor=#6c8ebf;strokeWidth=5;" edge="1" parent="1">
          <mxGeometry relative="1" as="geometry">
            <mxPoint x="239" y="1190" as="sourcePoint" />
            <mxPoint x="374.29" y="1190.47" as="targetPoint" />
            <Array as="points">
              <mxPoint x="278" y="1189.21" />
              <mxPoint x="278" y="1190.21" />
            </Array>
          </mxGeometry>
        </mxCell>
        <mxCell id="3gGa0sXZjqCmznwwwbql-49" value="" style="sketch=0;outlineConnect=0;fontColor=#232F3E;gradientColor=none;fillColor=#067F68;strokeColor=none;dashed=0;verticalLabelPosition=bottom;verticalAlign=top;align=center;html=1;fontSize=12;fontStyle=0;aspect=fixed;shape=mxgraph.aws4.application_discovery_service_migration_evaluator_collector;" vertex="1" parent="1">
          <mxGeometry x="570" y="1148.5" width="78" height="78" as="geometry" />
        </mxCell>
        <mxCell id="3gGa0sXZjqCmznwwwbql-50" value="Evaluation" style="text;html=1;align=center;verticalAlign=middle;resizable=0;points=[];autosize=1;strokeColor=none;fillColor=none;" vertex="1" parent="1">
          <mxGeometry x="577" y="1241" width="80" height="30" as="geometry" />
        </mxCell>
      </root>
    </mxGraphModel>
  </diagram>
</mxfile>
